<mxfile host="app.diagrams.net" modified="2023-04-18T20:14:43.292Z" agent="Mozilla/5.0 (Windows NT 10.0; Win64; x64) AppleWebKit/537.36 (KHTML, like Gecko) Chrome/109.0.0.0 Safari/537.36" etag="Qixyw-KUs_qMGFKHki4r" version="21.1.9" type="device">
  <diagram name="Página-1" id="wm97tnUxAGDXCdx6Nb7o">
    <mxGraphModel dx="1114" dy="616" grid="1" gridSize="10" guides="1" tooltips="1" connect="1" arrows="1" fold="1" page="1" pageScale="1" pageWidth="827" pageHeight="1169" math="0" shadow="0">
      <root>
        <mxCell id="0" />
        <mxCell id="1" parent="0" />
        <mxCell id="481A51ROor0Qnfj5iRs1-5" value="" style="edgeStyle=orthogonalEdgeStyle;rounded=0;orthogonalLoop=1;jettySize=auto;html=1;" edge="1" parent="1" source="481A51ROor0Qnfj5iRs1-1" target="481A51ROor0Qnfj5iRs1-4">
          <mxGeometry relative="1" as="geometry" />
        </mxCell>
        <mxCell id="481A51ROor0Qnfj5iRs1-1" value="INICIO" style="ellipse;whiteSpace=wrap;html=1;" vertex="1" parent="1">
          <mxGeometry x="350" y="280" width="120" height="80" as="geometry" />
        </mxCell>
        <mxCell id="481A51ROor0Qnfj5iRs1-11" value="" style="edgeStyle=orthogonalEdgeStyle;rounded=0;orthogonalLoop=1;jettySize=auto;html=1;" edge="1" parent="1" source="481A51ROor0Qnfj5iRs1-4" target="481A51ROor0Qnfj5iRs1-10">
          <mxGeometry relative="1" as="geometry" />
        </mxCell>
        <mxCell id="481A51ROor0Qnfj5iRs1-4" value="INICIALIZAR VARIABLES:&lt;br&gt;*nombre;&lt;br&gt;*apellido;&lt;br&gt;*dni;&amp;nbsp;&lt;br&gt;*añoDeNacimiento,&lt;br&gt;*edad;*&lt;br&gt;añoAcutal=2023" style="shape=parallelogram;perimeter=parallelogramPerimeter;whiteSpace=wrap;html=1;fixedSize=1;" vertex="1" parent="1">
          <mxGeometry x="185" y="445" width="450" height="140" as="geometry" />
        </mxCell>
        <mxCell id="481A51ROor0Qnfj5iRs1-13" value="" style="edgeStyle=orthogonalEdgeStyle;rounded=0;orthogonalLoop=1;jettySize=auto;html=1;" edge="1" parent="1" source="481A51ROor0Qnfj5iRs1-10" target="481A51ROor0Qnfj5iRs1-12">
          <mxGeometry relative="1" as="geometry" />
        </mxCell>
        <mxCell id="481A51ROor0Qnfj5iRs1-10" value="SOLICITAR y DEFINIR nombre, apellido, dni, añoDeNacimiento" style="shape=parallelogram;perimeter=parallelogramPerimeter;whiteSpace=wrap;html=1;fixedSize=1;" vertex="1" parent="1">
          <mxGeometry x="155" y="705" width="510" height="95" as="geometry" />
        </mxCell>
        <mxCell id="481A51ROor0Qnfj5iRs1-15" value="" style="edgeStyle=orthogonalEdgeStyle;rounded=0;orthogonalLoop=1;jettySize=auto;html=1;" edge="1" parent="1" source="481A51ROor0Qnfj5iRs1-12" target="481A51ROor0Qnfj5iRs1-14">
          <mxGeometry relative="1" as="geometry" />
        </mxCell>
        <mxCell id="481A51ROor0Qnfj5iRs1-12" value="edad = añoActual - añoDeNacimiento" style="whiteSpace=wrap;html=1;" vertex="1" parent="1">
          <mxGeometry x="150" y="897.5" width="520" height="60" as="geometry" />
        </mxCell>
        <mxCell id="481A51ROor0Qnfj5iRs1-14" value="PRINT: &quot;Hola nombre apellido. Tu dni es dni y tu edad es edad" style="shape=tape;whiteSpace=wrap;html=1;" vertex="1" parent="1">
          <mxGeometry x="140" y="1017.5" width="540" height="252.5" as="geometry" />
        </mxCell>
      </root>
    </mxGraphModel>
  </diagram>
</mxfile>
